<?xml version="1.0" encoding="UTF-8" standalone="no"?>
<!-- Created with Inkscape (http://www.inkscape.org/) -->

<svg
   xmlns:dc="http://purl.org/dc/elements/1.1/"
   xmlns:cc="http://creativecommons.org/ns#"
   xmlns:rdf="http://www.w3.org/1999/02/22-rdf-syntax-ns#"
   xmlns:svg="http://www.w3.org/2000/svg"
   xmlns="http://www.w3.org/2000/svg"
   xmlns:sodipodi="http://sodipodi.sourceforge.net/DTD/sodipodi-0.dtd"
   xmlns:inkscape="http://www.inkscape.org/namespaces/inkscape"
   width="210mm"
   height="297mm"
   viewBox="0 0 210 297"
   version="1.1"
   id="svg8"
   sodipodi:docname="dripD.svg"
   inkscape:version="0.92.1 r">
  <defs
     id="defs2" />
  <sodipodi:namedview
     id="base"
     pagecolor="#ffffff"
     bordercolor="#666666"
     borderopacity="1.0"
     inkscape:pageopacity="0.0"
     inkscape:pageshadow="2"
     inkscape:zoom="0.49497475"
     inkscape:cx="292.65597"
     inkscape:cy="452.94942"
     inkscape:document-units="mm"
     inkscape:current-layer="g4524"
     showgrid="true"
     inkscape:window-width="1366"
     inkscape:window-height="713"
     inkscape:window-x="0"
     inkscape:window-y="27"
     inkscape:window-maximized="1">
    <inkscape:grid
       type="xygrid"
       id="grid4485" />
  </sodipodi:namedview>
  <metadata
     id="metadata5">
    <rdf:RDF>
      <cc:Work
         rdf:about="">
        <dc:format>image/svg+xml</dc:format>
        <dc:type
           rdf:resource="http://purl.org/dc/dcmitype/StillImage" />
        <dc:title></dc:title>
      </cc:Work>
    </rdf:RDF>
  </metadata>
  <g
     inkscape:label="Layer 1"
     inkscape:groupmode="layer"
     id="layer1">
    <g
       id="g4524"
       transform="translate(5.517495,-5.5174475)">
      <path
         style="fill:#ffffff;fill-opacity:1;stroke:none;stroke-width:24.99999809;stroke-miterlimit:4;stroke-dasharray:none;stroke-opacity:1"
         d="M 580.85352 261.66602 L 260 582.51953 A 199.99999 199.99999 0 0 0 180.85352 741.66602 A 199.99999 199.99999 0 0 0 380.85352 941.66602 A 199.99999 199.99999 0 0 0 580.85352 741.66602 L 580.85352 261.66602 z M 380.04102 665.50391 A 63.025342 81.114007 0 0 1 443.06641 746.61719 A 63.025342 81.114007 0 0 1 380.04102 827.73242 A 63.025342 81.114007 0 0 1 317.01562 746.61719 A 63.025342 81.114007 0 0 1 380.04102 665.50391 z "
         transform="matrix(0.26458333,0,0,0.26458333,-5.517495,5.5174475)"
         id="path4491" />
    </g>
  </g>
</svg>
