<?xml version="1.0" encoding="UTF-8" standalone="no"?>
<!-- Created with Inkscape (http://www.inkscape.org/) -->

<svg
   xmlns:dc="http://purl.org/dc/elements/1.1/"
   xmlns:cc="http://creativecommons.org/ns#"
   xmlns:rdf="http://www.w3.org/1999/02/22-rdf-syntax-ns#"
   xmlns:svg="http://www.w3.org/2000/svg"
   xmlns="http://www.w3.org/2000/svg"
   xmlns:sodipodi="http://sodipodi.sourceforge.net/DTD/sodipodi-0.dtd"
   xmlns:inkscape="http://www.inkscape.org/namespaces/inkscape"
   width="210mm"
   height="297mm"
   viewBox="0 0 210 297"
   version="1.1"
   id="svg8"
   sodipodi:docname="dripD2.svg"
   inkscape:version="0.92.1 r">
  <defs
     id="defs2" />
  <sodipodi:namedview
     id="base"
     pagecolor="#ffffff"
     bordercolor="#666666"
     borderopacity="1.0"
     inkscape:pageopacity="0.0"
     inkscape:pageshadow="2"
     inkscape:zoom="0.7"
     inkscape:cx="471.06506"
     inkscape:cy="543.29893"
     inkscape:document-units="mm"
     inkscape:current-layer="g4524"
     showgrid="true"
     inkscape:window-width="1366"
     inkscape:window-height="713"
     inkscape:window-x="0"
     inkscape:window-y="27"
     inkscape:window-maximized="1">
    <inkscape:grid
       type="xygrid"
       id="grid4485" />
  </sodipodi:namedview>
  <metadata
     id="metadata5">
    <rdf:RDF>
      <cc:Work
         rdf:about="">
        <dc:format>image/svg+xml</dc:format>
        <dc:type
           rdf:resource="http://purl.org/dc/dcmitype/StillImage" />
        <dc:title></dc:title>
      </cc:Work>
    </rdf:RDF>
  </metadata>
  <g
     inkscape:label="Layer 1"
     inkscape:groupmode="layer"
     id="layer1">
    <g
       id="g4524"
       transform="translate(5.517495,-5.5174475)">
      <path
         style="fill:#ffffff;fill-opacity:1;stroke:none;stroke-width:24.99999809;stroke-miterlimit:4;stroke-dasharray:none;stroke-opacity:1"
         d="M 580.85352 261.66602 L 580 262.51953 C 580 262.51953 545.60891 409.5851 455.75586 484.53906 C 409.02944 523.51749 358.22739 543.404 323.30664 553.30078 L 260 582.51953 A 199.99999 199.99999 0 0 0 180.85352 741.66602 A 199.99999 199.99999 0 0 0 380.85352 941.66602 A 199.99999 199.99999 0 0 0 580.85352 741.66602 L 580.85352 261.66602 z M 392.16016 652.81836 A 73.571424 94.285699 17.524033 0 1 411.96094 655.4668 A 73.571424 94.285699 17.524033 0 1 453.72852 767.5293 A 73.571424 94.285699 17.524033 0 1 355.18164 835.28711 A 73.571424 94.285699 17.524033 0 1 313.41406 723.22461 A 73.571424 94.285699 17.524033 0 1 392.16016 652.81836 z "
         transform="matrix(0.26458333,0,0,0.26458333,-5.517495,5.5174475)"
         id="path4491" />
    </g>
  </g>
</svg>
